<?xml version="1.0" standalone="no"?>
<!DOCTYPE svg PUBLIC "-//W3C//DTD SVG 20010904//EN"
 "http://www.w3.org/TR/2001/REC-SVG-20010904/DTD/svg10.dtd">
<svg version="1.0" xmlns="http://www.w3.org/2000/svg"
 width="645.000000pt" height="645.000000pt" viewBox="0 0 645.000000 645.000000"
 preserveAspectRatio="xMidYMid meet">
<metadata>
Created by potrace 1.14, written by Peter Selinger 2001-2017
</metadata>
<g transform="translate(0.000000,645.000000) scale(0.100000,-0.100000)"
fill="#000000" stroke="none">
<path d="M2830 6067 c-51 -27 -140 -136 -160 -198 -8 -22 -21 -44 -29 -49 -9
-4 -72 -20 -141 -34 -96 -20 -156 -41 -260 -88 -293 -132 -299 -137 -479 -358
-19 -24 -40 -48 -46 -54 -55 -57 -160 -184 -193 -233 -42 -62 -149 -167 -215
-211 -51 -34 -110 -39 -143 -13 -14 11 -33 17 -42 15 -51 -17 -61 -29 -90
-108 -33 -88 -38 -110 -48 -201 -10 -101 -8 -112 25 -146 24 -23 38 -29 73
-29 24 0 53 -7 64 -15 10 -8 28 -15 39 -15 11 0 45 -26 75 -56 55 -55 177
-126 265 -154 22 -7 45 -16 50 -20 6 -5 29 -13 51 -19 58 -15 94 -69 101 -150
l6 -61 -37 0 c-47 0 -120 -35 -134 -64 -19 -42 38 -162 103 -216 14 -11 14
-15 1 -29 -8 -9 -19 -28 -25 -43 -6 -17 -28 -36 -58 -52 -26 -13 -78 -46 -115
-73 -37 -26 -86 -59 -108 -73 -23 -14 -56 -43 -73 -65 -16 -22 -44 -53 -61
-68 -17 -16 -44 -41 -61 -56 -16 -15 -41 -43 -55 -61 -14 -19 -41 -50 -60 -70
-19 -19 -45 -50 -58 -68 -43 -64 -102 -184 -102 -209 0 -23 3 -25 32 -20 38 6
66 12 90 22 29 12 21 -17 -22 -79 -22 -31 -40 -61 -40 -65 0 -16 28 -20 62
-10 18 5 49 12 68 15 19 3 39 9 44 12 5 3 47 6 93 8 46 2 110 10 141 19 31 10
65 19 74 20 30 6 108 43 151 73 23 15 47 31 54 35 8 5 11 -75 11 -316 0 -305
2 -329 26 -448 30 -151 49 -196 125 -308 31 -47 69 -106 83 -131 29 -51 77
-95 125 -115 18 -8 53 -30 79 -49 48 -37 112 -62 179 -69 22 -3 60 -12 85 -21
25 -9 50 -18 57 -21 12 -4 4 -32 -52 -195 -48 -140 -54 -148 -127 -196 -107
-70 -197 -160 -230 -229 -15 -33 -28 -66 -28 -73 0 -23 28 -24 52 -3 37 35
146 55 141 26 -16 -101 -16 -107 2 -103 10 1 25 17 34 34 24 47 92 80 141 67
18 -5 21 -12 19 -55 -2 -34 2 -52 12 -59 22 -13 38 35 39 116 1 100 24 247 53
340 14 44 35 118 46 165 25 102 40 140 55 141 36 3 197 -3 231 -9 44 -8 480
-6 560 2 108 12 254 18 268 13 12 -5 13 -13 6 -44 -5 -21 -11 -76 -15 -123 -3
-47 -7 -98 -9 -115 -3 -16 -7 -52 -11 -80 -5 -36 -14 -57 -33 -75 -15 -14 -51
-60 -81 -102 -29 -43 -57 -78 -62 -78 -4 0 -8 -6 -8 -13 0 -7 -7 -22 -15 -32
-49 -62 -115 -161 -115 -172 0 -23 20 -24 52 -2 42 30 137 39 161 14 18 -18
22 -52 8 -74 -11 -18 -3 -41 14 -41 8 0 22 11 32 23 45 57 80 52 85 -12 3 -45
23 -59 42 -29 41 63 62 325 34 438 -14 61 -13 101 5 195 22 115 46 246 50 277
4 36 10 41 70 54 88 20 231 80 322 137 43 26 114 86 195 164 82 78 106 100
148 133 11 8 55 47 98 86 44 39 94 84 113 100 55 46 164 160 196 206 17 24 60
93 95 153 35 61 80 130 100 155 52 64 110 151 168 255 28 50 64 108 81 130 16
22 42 66 57 97 20 41 35 58 53 63 45 11 133 73 208 145 73 71 86 103 37 94
-37 -7 -29 9 25 52 58 46 68 64 45 81 -15 11 -14 15 15 49 38 43 40 87 4 92
-13 2 -23 -1 -23 -7 0 -6 -60 -29 -132 -52 -73 -22 -155 -52 -183 -65 -27 -13
-111 -40 -185 -61 l-135 -37 -295 -2 c-266 -2 -378 2 -580 19 -36 3 -85 14
-110 25 -25 10 -57 22 -71 25 -91 23 -219 112 -219 155 0 9 -16 44 -36 76 -92
153 -110 222 -119 449 -3 87 -8 164 -10 170 -2 7 -6 36 -10 66 -3 30 -8 64
-10 75 -2 12 -7 57 -10 101 -4 44 -8 98 -10 120 -2 22 -7 133 -11 247 l-7 208
35 38 c51 56 75 114 118 284 48 191 75 266 107 296 31 30 16 56 -23 41 -33
-12 -77 -12 -90 1 -21 21 -110 46 -156 44 -26 -1 -75 -10 -108 -18 -68 -18
-66 -18 -130 35 -45 37 -169 94 -225 103 -147 25 -205 41 -206 58 -1 10 -2 26
-3 36 -3 41 -41 154 -60 177 l-21 26 -45 -24z"/>
</g>
</svg>
